REM DIRINDEX 1\2,1\3,1\4,1\5\6,1\5\7,1\8
REM DIRNAME folder01,folder02,folder03,folder04,folder05,folder06,folder07,folder08
TITLE ""
FILE "033 Åy033ÅzUnit2 (0373 originate_0384 oversee).mp3" MP3
  TRACK 01 AUDIO
    TITLE "0:"
    INDEX 01 00:00:00
  TRACK 02 AUDIO
    TITLE "2:cjc115_1234"
    INDEX 01 00:00:07
  TRACK 03 AUDIO
    TITLE "0:"
    INDEX 01 00:01:26
  TRACK 04 AUDIO
    TITLE "3:cjc115_1235"
    INDEX 01 00:01:34
  TRACK 05 AUDIO
    TITLE "0:"
    INDEX 01 00:03:29
  TRACK 06 AUDIO
    TITLE "4:cjc115_1236"
    INDEX 01 00:03:37
  TRACK 07 AUDIO
    TITLE "0:"
    INDEX 01 00:07:60
  TRACK 08 AUDIO
    TITLE "2:cjc115_1237"
    INDEX 01 00:08:72
  TRACK 09 AUDIO
    TITLE "0:"
    INDEX 01 00:10:06
  TRACK 10 AUDIO
    TITLE "3:cjc115_1238"
    INDEX 01 00:10:18
  TRACK 11 AUDIO
    TITLE "0:"
    INDEX 01 00:13:00
  TRACK 12 AUDIO
    TITLE "4:cjc115_1239"
    INDEX 01 00:13:08
  TRACK 13 AUDIO
    TITLE "0:"
    INDEX 01 00:15:32
  TRACK 14 AUDIO
    TITLE "2:cjc115_1240"
    INDEX 01 00:16:40
  TRACK 15 AUDIO
    TITLE "0:"
    INDEX 01 00:17:74
  TRACK 16 AUDIO
    TITLE "3:cjc115_1241"
    INDEX 01 00:18:07
  TRACK 17 AUDIO
    TITLE "0:"
    INDEX 01 00:19:42
  TRACK 18 AUDIO
    TITLE "4:cjc115_1242"
    INDEX 01 00:19:48
  TRACK 19 AUDIO
    TITLE "0:"
    INDEX 01 00:22:56
  TRACK 20 AUDIO
    TITLE "2:cjc115_1243"
    INDEX 01 00:23:63
  TRACK 21 AUDIO
    TITLE "0:"
    INDEX 01 00:25:23
  TRACK 22 AUDIO
    TITLE "3:cjc115_1244"
    INDEX 01 00:25:31
  TRACK 23 AUDIO
    TITLE "0:"
    INDEX 01 00:26:58
  TRACK 24 AUDIO
    TITLE "4:cjc115_1245"
    INDEX 01 00:26:67
  TRACK 25 AUDIO
    TITLE "0:"
    INDEX 01 00:29:13
  TRACK 26 AUDIO
    TITLE "2:cjc115_1246"
    INDEX 01 00:30:24
  TRACK 27 AUDIO
    TITLE "0:"
    INDEX 01 00:31:45
  TRACK 28 AUDIO
    TITLE "3:cjc115_1247"
    INDEX 01 00:31:51
  TRACK 29 AUDIO
    TITLE "0:"
    INDEX 01 00:33:60
  TRACK 30 AUDIO
    TITLE "4:cjc115_1248"
    INDEX 01 00:33:69
  TRACK 31 AUDIO
    TITLE "0:"
    INDEX 01 00:37:14
  TRACK 32 AUDIO
    TITLE "2:cjc115_1249"
    INDEX 01 00:38:24
  TRACK 33 AUDIO
    TITLE "0:"
    INDEX 01 00:39:29
  TRACK 34 AUDIO
    TITLE "3:cjc115_1250"
    INDEX 01 00:39:37
  TRACK 35 AUDIO
    TITLE "0:"
    INDEX 01 00:40:50
  TRACK 36 AUDIO
    TITLE "4:cjc115_1251"
    INDEX 01 00:40:56
  TRACK 37 AUDIO
    TITLE "0:"
    INDEX 01 00:44:32
  TRACK 38 AUDIO
    TITLE "2:cjc115_1252"
    INDEX 01 00:45:39
  TRACK 39 AUDIO
    TITLE "0:"
    INDEX 01 00:46:54
  TRACK 40 AUDIO
    TITLE "3:cjc115_1253"
    INDEX 01 00:46:62
  TRACK 41 AUDIO
    TITLE "0:"
    INDEX 01 00:48:73
  TRACK 42 AUDIO
    TITLE "4:cjc115_1254"
    INDEX 01 00:49:06
  TRACK 43 AUDIO
    TITLE "0:"
    INDEX 01 00:53:23
  TRACK 44 AUDIO
    TITLE "2:cjc115_1255"
    INDEX 01 00:54:32
  TRACK 45 AUDIO
    TITLE "0:"
    INDEX 01 00:55:38
  TRACK 46 AUDIO
    TITLE "3:cjc115_1256"
    INDEX 01 00:55:50
  TRACK 47 AUDIO
    TITLE "0:"
    INDEX 01 00:58:52
  TRACK 48 AUDIO
    TITLE "4:cjc115_1257"
    INDEX 01 00:58:62
  TRACK 49 AUDIO
    TITLE "0:"
    INDEX 01 01:03:29
  TRACK 50 AUDIO
    TITLE "2:cjc115_1258"
    INDEX 01 01:04:39
  TRACK 51 AUDIO
    TITLE "0:"
    INDEX 01 01:05:56
  TRACK 52 AUDIO
    TITLE "3:cjc115_1259"
    INDEX 01 01:05:64
  TRACK 53 AUDIO
    TITLE "0:"
    INDEX 01 01:08:38
  TRACK 54 AUDIO
    TITLE "4:cjc115_1260"
    INDEX 01 01:08:46
  TRACK 55 AUDIO
    TITLE "0:"
    INDEX 01 01:13:04
  TRACK 56 AUDIO
    TITLE "2:cjc115_1261"
    INDEX 01 01:14:12
  TRACK 57 AUDIO
    TITLE "0:"
    INDEX 01 01:15:54
  TRACK 58 AUDIO
    TITLE "3:cjc115_1262"
    INDEX 01 01:15:62
  TRACK 59 AUDIO
    TITLE "0:"
    INDEX 01 01:18:02
  TRACK 60 AUDIO
    TITLE "4:cjc115_1263"
    INDEX 01 01:18:07
  TRACK 61 AUDIO
    TITLE "0:"
    INDEX 01 01:23:16
  TRACK 62 AUDIO
    TITLE "2:cjc115_1264"
    INDEX 01 01:24:26
  TRACK 63 AUDIO
    TITLE "0:"
    INDEX 01 01:25:45
  TRACK 64 AUDIO
    TITLE "3:cjc115_1265"
    INDEX 01 01:25:57
  TRACK 65 AUDIO
    TITLE "0:"
    INDEX 01 01:27:67
  TRACK 66 AUDIO
    TITLE "4:cjc115_1266"
    INDEX 01 01:28:02
  TRACK 67 AUDIO
    TITLE "0:"
    INDEX 01 01:31:67
  TRACK 68 AUDIO
    TITLE "2:cjc115_1267"
    INDEX 01 01:33:01
  TRACK 69 AUDIO
    TITLE "0:"
    INDEX 01 01:34:20
  TRACK 70 AUDIO
    TITLE "3:cjc115_1268"
    INDEX 01 01:34:30
  TRACK 71 AUDIO
    TITLE "0:"
    INDEX 01 01:36:66
  TRACK 72 AUDIO
    TITLE "4:cjc115_1269"
    INDEX 01 01:36:72
  TRACK 73 AUDIO
    TITLE "0:"
    INDEX 01 01:41:12
